<svg width="34" height="29" viewBox="0 0 34 29" fill="none" xmlns="http://www.w3.org/2000/svg">
<g clip-path="url(#clip0)">
<path d="M4.15448 11L2.15622 28.5H23.138L21.1397 11H4.15448Z" stroke="black" stroke-width="2" stroke-miterlimit="10" stroke-linecap="round"/>
<path d="M17.1432 13.5C17.1432 12.8795 17.1432 10.1205 17.1432 9.5C17.1432 7.0145 15.1304 5 12.6471 5C10.1638 5 8.151 7.0145 8.151 9.5C8.151 10.1205 8.151 12.8795 8.151 13.5" stroke="black" stroke-width="2" stroke-miterlimit="10" stroke-linecap="round"/>
<path d="M17.1432 14.5C17.695 14.5 18.1423 14.0523 18.1423 13.5C18.1423 12.9477 17.695 12.5 17.1432 12.5C16.5914 12.5 16.1441 12.9477 16.1441 13.5C16.1441 14.0523 16.5914 14.5 17.1432 14.5Z" fill="black"/>
<path d="M8.15102 14.5C8.70282 14.5 9.15015 14.0523 9.15015 13.5C9.15015 12.9477 8.70282 12.5 8.15102 12.5C7.59921 12.5 7.15189 12.9477 7.15189 13.5C7.15189 14.0523 7.59921 14.5 8.15102 14.5Z" fill="black"/>
</g>
<ellipse cx="24.1371" cy="9" rx="8.99219" ry="9" fill="#EC3030"/>
<path d="M26.7041 10.0581C26.7041 11.4334 26.4692 12.4554 25.9995 13.124C25.5298 13.7926 24.7956 14.127 23.7969 14.127C22.8109 14.127 22.0809 13.8011 21.6069 13.1494C21.133 12.4935 20.8875 11.516 20.8706 10.2168V8.64893C20.8706 7.29053 21.1055 6.28125 21.5752 5.62109C22.0449 4.96094 22.7812 4.63086 23.7842 4.63086C24.7786 4.63086 25.5107 4.95036 25.9805 5.58936C26.4502 6.22412 26.6914 7.20589 26.7041 8.53467V10.0581ZM25.5298 8.45215C25.5298 7.45768 25.3901 6.73405 25.1108 6.28125C24.8315 5.82422 24.3893 5.5957 23.7842 5.5957C23.1833 5.5957 22.7453 5.8221 22.4702 6.2749C22.1951 6.7277 22.0534 7.42383 22.0449 8.36328V10.2422C22.0449 11.2409 22.1888 11.9793 22.4766 12.4575C22.7686 12.9315 23.2087 13.1685 23.7969 13.1685C24.3766 13.1685 24.8062 12.9442 25.0854 12.4956C25.369 12.047 25.5171 11.3403 25.5298 10.3755V8.45215Z" fill="white"/>
<defs>
<clipPath id="clip0">
<rect width="24.9783" height="25" fill="white" transform="translate(0.157959 4)"/>
</clipPath>
</defs>
</svg>
