<svg width="26" height="25" viewBox="0 0 26 25" fill="none" xmlns="http://www.w3.org/2000/svg">
<path fill-rule="evenodd" clip-rule="evenodd" d="M13.0117 22.7333L12.5933 22.9167L12.1749 22.7333C6.79728 19.4339 1.1449 11.9234 1.1449 7.75208C1.16311 4.33645 3.95704 1.56354 7.38947 1.56354C9.55894 1.56354 11.4739 2.67187 12.5933 4.34948C13.7126 2.67187 15.6276 1.56354 17.7971 1.56354C21.2295 1.56354 24.0235 4.33645 24.0417 7.75208C24.0417 11.9234 18.3893 19.4339 13.0117 22.7333ZM17.7971 2.60052C16.0517 2.60052 14.4308 3.46875 13.4597 4.92343L12.5933 6.22187L11.7268 4.92291C10.7558 3.46875 9.13483 2.60052 7.38947 2.60052C4.5357 2.60052 2.20075 4.91406 2.18566 7.75208C2.18566 11.4312 7.51124 18.5896 12.5933 21.7714C17.6753 18.5896 23.0009 11.4318 23.0009 7.75729C22.9858 4.91406 20.6509 2.60052 17.7971 2.60052Z" fill="black"/>
</svg>
